<mxfile host="app.diagrams.net" modified="2021-08-03T09:11:15.527Z" agent="5.0 (Macintosh; Intel Mac OS X 10_13_6) AppleWebKit/537.36 (KHTML, like Gecko) Chrome/92.0.4515.107 Safari/537.36" etag="Nk1XAG5071BfNYid9fG5" version="14.9.3" type="github">
  <diagram id="_bzWYxfmilrkJDTxYulS" name="Page-1">
    <mxGraphModel dx="946" dy="557" grid="0" gridSize="10" guides="1" tooltips="1" connect="1" arrows="1" fold="1" page="1" pageScale="1" pageWidth="827" pageHeight="1169" math="0" shadow="0">
      <root>
        <mxCell id="0" />
        <mxCell id="1" parent="0" />
        <mxCell id="dSVzUY7lnLiLLn1l-tGU-11" style="edgeStyle=orthogonalEdgeStyle;rounded=0;orthogonalLoop=1;jettySize=auto;html=1;exitX=1;exitY=0.5;exitDx=0;exitDy=0;entryX=0;entryY=0.5;entryDx=0;entryDy=0;" parent="1" source="dSVzUY7lnLiLLn1l-tGU-1" target="dSVzUY7lnLiLLn1l-tGU-2" edge="1">
          <mxGeometry relative="1" as="geometry" />
        </mxCell>
        <mxCell id="oRkzwmTWN0kMbXDqS24B-16" style="edgeStyle=orthogonalEdgeStyle;curved=1;orthogonalLoop=1;jettySize=auto;html=1;exitX=1;exitY=1;exitDx=0;exitDy=0;entryX=0;entryY=1;entryDx=0;entryDy=0;" parent="1" source="dSVzUY7lnLiLLn1l-tGU-1" target="dSVzUY7lnLiLLn1l-tGU-2" edge="1">
          <mxGeometry relative="1" as="geometry">
            <Array as="points">
              <mxPoint x="113" y="347" />
              <mxPoint x="235" y="347" />
            </Array>
          </mxGeometry>
        </mxCell>
        <mxCell id="oRkzwmTWN0kMbXDqS24B-31" style="edgeStyle=orthogonalEdgeStyle;rounded=1;orthogonalLoop=1;jettySize=auto;html=1;exitX=0;exitY=0;exitDx=0;exitDy=0;entryX=0.012;entryY=0.967;entryDx=0;entryDy=0;entryPerimeter=0;" parent="1" source="dSVzUY7lnLiLLn1l-tGU-1" target="oRkzwmTWN0kMbXDqS24B-25" edge="1">
          <mxGeometry relative="1" as="geometry" />
        </mxCell>
        <mxCell id="dSVzUY7lnLiLLn1l-tGU-1" value="&lt;font style=&quot;font-size: 20px&quot;&gt;0&lt;/font&gt;" style="ellipse;whiteSpace=wrap;html=1;aspect=fixed;" parent="1" vertex="1">
          <mxGeometry x="68" y="280" width="53" height="53" as="geometry" />
        </mxCell>
        <mxCell id="oRkzwmTWN0kMbXDqS24B-4" style="edgeStyle=orthogonalEdgeStyle;rounded=0;orthogonalLoop=1;jettySize=auto;html=1;exitX=1;exitY=0.5;exitDx=0;exitDy=0;" parent="1" source="dSVzUY7lnLiLLn1l-tGU-2" target="dSVzUY7lnLiLLn1l-tGU-3" edge="1">
          <mxGeometry relative="1" as="geometry" />
        </mxCell>
        <mxCell id="dSVzUY7lnLiLLn1l-tGU-2" value="&lt;span style=&quot;font-size: 20px&quot;&gt;1&lt;/span&gt;" style="ellipse;whiteSpace=wrap;html=1;aspect=fixed;" parent="1" vertex="1">
          <mxGeometry x="227" y="280" width="53" height="53" as="geometry" />
        </mxCell>
        <mxCell id="oRkzwmTWN0kMbXDqS24B-5" style="edgeStyle=orthogonalEdgeStyle;rounded=0;orthogonalLoop=1;jettySize=auto;html=1;exitX=1;exitY=0.5;exitDx=0;exitDy=0;entryX=0;entryY=0.5;entryDx=0;entryDy=0;" parent="1" source="dSVzUY7lnLiLLn1l-tGU-3" target="dSVzUY7lnLiLLn1l-tGU-4" edge="1">
          <mxGeometry relative="1" as="geometry" />
        </mxCell>
        <mxCell id="dSVzUY7lnLiLLn1l-tGU-3" value="&lt;span style=&quot;font-size: 20px&quot;&gt;2&lt;/span&gt;" style="ellipse;whiteSpace=wrap;html=1;aspect=fixed;" parent="1" vertex="1">
          <mxGeometry x="386" y="280" width="53" height="53" as="geometry" />
        </mxCell>
        <mxCell id="oRkzwmTWN0kMbXDqS24B-6" style="edgeStyle=orthogonalEdgeStyle;rounded=0;orthogonalLoop=1;jettySize=auto;html=1;exitX=1;exitY=0.5;exitDx=0;exitDy=0;entryX=0;entryY=0.5;entryDx=0;entryDy=0;" parent="1" source="dSVzUY7lnLiLLn1l-tGU-4" target="dSVzUY7lnLiLLn1l-tGU-5" edge="1">
          <mxGeometry relative="1" as="geometry" />
        </mxCell>
        <mxCell id="dSVzUY7lnLiLLn1l-tGU-4" value="&lt;span style=&quot;font-size: 20px&quot;&gt;3&lt;/span&gt;" style="ellipse;whiteSpace=wrap;html=1;aspect=fixed;" parent="1" vertex="1">
          <mxGeometry x="545" y="280" width="53" height="53" as="geometry" />
        </mxCell>
        <mxCell id="dSVzUY7lnLiLLn1l-tGU-5" value="" style="ellipse;whiteSpace=wrap;html=1;aspect=fixed;" parent="1" vertex="1">
          <mxGeometry x="704" y="280" width="53" height="53" as="geometry" />
        </mxCell>
        <mxCell id="oRkzwmTWN0kMbXDqS24B-7" value="&lt;font style=&quot;font-size: 16px&quot;&gt;不&lt;/font&gt;" style="text;html=1;strokeColor=none;fillColor=none;align=center;verticalAlign=middle;whiteSpace=wrap;rounded=0;" parent="1" vertex="1">
          <mxGeometry x="147" y="283" width="40" height="20" as="geometry" />
        </mxCell>
        <mxCell id="oRkzwmTWN0kMbXDqS24B-9" value="&lt;font style=&quot;font-size: 16px&quot;&gt;忘&lt;/font&gt;" style="text;html=1;strokeColor=none;fillColor=none;align=center;verticalAlign=middle;whiteSpace=wrap;rounded=0;" parent="1" vertex="1">
          <mxGeometry x="313" y="283" width="40" height="20" as="geometry" />
        </mxCell>
        <mxCell id="oRkzwmTWN0kMbXDqS24B-11" value="&lt;font style=&quot;font-size: 16px&quot;&gt;初&lt;/font&gt;" style="text;html=1;strokeColor=none;fillColor=none;align=center;verticalAlign=middle;whiteSpace=wrap;rounded=0;" parent="1" vertex="1">
          <mxGeometry x="472" y="283" width="40" height="20" as="geometry" />
        </mxCell>
        <mxCell id="oRkzwmTWN0kMbXDqS24B-12" value="&lt;font style=&quot;font-size: 16px&quot;&gt;心&lt;/font&gt;" style="text;html=1;strokeColor=none;fillColor=none;align=center;verticalAlign=middle;whiteSpace=wrap;rounded=0;" parent="1" vertex="1">
          <mxGeometry x="627" y="283" width="40" height="20" as="geometry" />
        </mxCell>
        <mxCell id="oRkzwmTWN0kMbXDqS24B-17" style="edgeStyle=orthogonalEdgeStyle;curved=1;orthogonalLoop=1;jettySize=auto;html=1;exitX=1;exitY=1;exitDx=0;exitDy=0;entryX=0;entryY=1;entryDx=0;entryDy=0;" parent="1" edge="1">
          <mxGeometry relative="1" as="geometry">
            <mxPoint x="272.2383297014435" y="324.9983297014435" as="sourcePoint" />
            <mxPoint x="393.7616702985565" y="324.9983297014435" as="targetPoint" />
            <Array as="points">
              <mxPoint x="272" y="346.76" />
              <mxPoint x="394" y="346.76" />
            </Array>
          </mxGeometry>
        </mxCell>
        <mxCell id="oRkzwmTWN0kMbXDqS24B-18" style="edgeStyle=orthogonalEdgeStyle;curved=1;orthogonalLoop=1;jettySize=auto;html=1;exitX=1;exitY=1;exitDx=0;exitDy=0;entryX=0;entryY=1;entryDx=0;entryDy=0;" parent="1" edge="1">
          <mxGeometry relative="1" as="geometry">
            <mxPoint x="434.0383297014435" y="324.9983297014435" as="sourcePoint" />
            <mxPoint x="555.5616702985565" y="324.9983297014435" as="targetPoint" />
            <Array as="points">
              <mxPoint x="433.8" y="346.76" />
              <mxPoint x="555.8" y="346.76" />
            </Array>
          </mxGeometry>
        </mxCell>
        <mxCell id="oRkzwmTWN0kMbXDqS24B-19" style="edgeStyle=orthogonalEdgeStyle;curved=1;orthogonalLoop=1;jettySize=auto;html=1;exitX=1;exitY=1;exitDx=0;exitDy=0;entryX=0;entryY=1;entryDx=0;entryDy=0;" parent="1" edge="1">
          <mxGeometry relative="1" as="geometry">
            <mxPoint x="593.0383297014434" y="323.9983297014435" as="sourcePoint" />
            <mxPoint x="714.5616702985565" y="323.9983297014435" as="targetPoint" />
            <Array as="points">
              <mxPoint x="592.8" y="345.76" />
              <mxPoint x="714.8" y="345.76" />
            </Array>
          </mxGeometry>
        </mxCell>
        <mxCell id="oRkzwmTWN0kMbXDqS24B-20" value="&lt;font style=&quot;font-size: 16px&quot;&gt;&amp;lt;del&amp;gt;/p&lt;sub&gt;1&lt;/sub&gt;&lt;/font&gt;" style="text;html=1;strokeColor=none;fillColor=none;align=center;verticalAlign=middle;whiteSpace=wrap;rounded=0;" parent="1" vertex="1">
          <mxGeometry x="147" y="327" width="40" height="20" as="geometry" />
        </mxCell>
        <mxCell id="oRkzwmTWN0kMbXDqS24B-21" value="&lt;font style=&quot;font-size: 16px&quot;&gt;&amp;lt;del&amp;gt;/p&lt;sub&gt;1&lt;/sub&gt;&lt;/font&gt;" style="text;html=1;strokeColor=none;fillColor=none;align=center;verticalAlign=middle;whiteSpace=wrap;rounded=0;" parent="1" vertex="1">
          <mxGeometry x="318" y="327" width="40" height="20" as="geometry" />
        </mxCell>
        <mxCell id="oRkzwmTWN0kMbXDqS24B-22" value="&lt;font style=&quot;font-size: 16px&quot;&gt;&amp;lt;del&amp;gt;/p&lt;sub&gt;1&lt;/sub&gt;&lt;/font&gt;" style="text;html=1;strokeColor=none;fillColor=none;align=center;verticalAlign=middle;whiteSpace=wrap;rounded=0;" parent="1" vertex="1">
          <mxGeometry x="476" y="327" width="40" height="20" as="geometry" />
        </mxCell>
        <mxCell id="oRkzwmTWN0kMbXDqS24B-24" value="&lt;font style=&quot;font-size: 16px&quot;&gt;&amp;lt;del&amp;gt;/p&lt;sub&gt;1&lt;/sub&gt;&lt;/font&gt;" style="text;html=1;strokeColor=none;fillColor=none;align=center;verticalAlign=middle;whiteSpace=wrap;rounded=0;" parent="1" vertex="1">
          <mxGeometry x="638" y="327" width="40" height="20" as="geometry" />
        </mxCell>
        <mxCell id="oRkzwmTWN0kMbXDqS24B-25" value="&lt;span style=&quot;font-size: 21px&quot;&gt;Filler&lt;/span&gt;" style="rounded=0;whiteSpace=wrap;html=1;fillColor=#eeeeee;strokeColor=#36393d;" parent="1" vertex="1">
          <mxGeometry x="68" y="155" width="692" height="60" as="geometry" />
        </mxCell>
        <mxCell id="oRkzwmTWN0kMbXDqS24B-26" value="&lt;font style=&quot;font-size: 20px&quot;&gt;4&lt;/font&gt;" style="ellipse;whiteSpace=wrap;html=1;aspect=fixed;" parent="1" vertex="1">
          <mxGeometry x="710.5" y="286.5" width="40.5" height="40.5" as="geometry" />
        </mxCell>
        <mxCell id="oRkzwmTWN0kMbXDqS24B-29" value="" style="endArrow=classic;html=1;entryX=0.25;entryY=1;entryDx=0;entryDy=0;" parent="1" edge="1">
          <mxGeometry width="50" height="50" relative="1" as="geometry">
            <mxPoint x="241" y="285" as="sourcePoint" />
            <mxPoint x="240.99999999999977" y="213" as="targetPoint" />
          </mxGeometry>
        </mxCell>
        <mxCell id="oRkzwmTWN0kMbXDqS24B-33" value="" style="endArrow=classic;html=1;entryX=1;entryY=0;entryDx=0;entryDy=0;" parent="1" target="dSVzUY7lnLiLLn1l-tGU-1" edge="1">
          <mxGeometry width="50" height="50" relative="1" as="geometry">
            <mxPoint x="113" y="217" as="sourcePoint" />
            <mxPoint x="455" y="270" as="targetPoint" />
          </mxGeometry>
        </mxCell>
        <mxCell id="oRkzwmTWN0kMbXDqS24B-34" value="" style="endArrow=classic;html=1;entryX=1;entryY=0;entryDx=0;entryDy=0;" parent="1" edge="1">
          <mxGeometry width="50" height="50" relative="1" as="geometry">
            <mxPoint x="272" y="215.74" as="sourcePoint" />
            <mxPoint x="272.2383297014435" y="286.5016702985565" as="targetPoint" />
          </mxGeometry>
        </mxCell>
        <mxCell id="oRkzwmTWN0kMbXDqS24B-35" value="" style="endArrow=classic;html=1;entryX=0.25;entryY=1;entryDx=0;entryDy=0;" parent="1" edge="1">
          <mxGeometry width="50" height="50" relative="1" as="geometry">
            <mxPoint x="393" y="287" as="sourcePoint" />
            <mxPoint x="392.9999999999998" y="215" as="targetPoint" />
          </mxGeometry>
        </mxCell>
        <mxCell id="oRkzwmTWN0kMbXDqS24B-36" value="" style="endArrow=classic;html=1;entryX=0.25;entryY=1;entryDx=0;entryDy=0;" parent="1" edge="1">
          <mxGeometry width="50" height="50" relative="1" as="geometry">
            <mxPoint x="557" y="286.5" as="sourcePoint" />
            <mxPoint x="556.9999999999998" y="214.5" as="targetPoint" />
          </mxGeometry>
        </mxCell>
        <mxCell id="oRkzwmTWN0kMbXDqS24B-37" value="" style="endArrow=classic;html=1;entryX=0.25;entryY=1;entryDx=0;entryDy=0;" parent="1" edge="1">
          <mxGeometry width="50" height="50" relative="1" as="geometry">
            <mxPoint x="713" y="287" as="sourcePoint" />
            <mxPoint x="712.9999999999998" y="215" as="targetPoint" />
          </mxGeometry>
        </mxCell>
        <mxCell id="oRkzwmTWN0kMbXDqS24B-38" value="" style="endArrow=classic;html=1;entryX=1;entryY=0;entryDx=0;entryDy=0;" parent="1" edge="1">
          <mxGeometry width="50" height="50" relative="1" as="geometry">
            <mxPoint x="431" y="218" as="sourcePoint" />
            <mxPoint x="431.2383297014435" y="288.7616702985565" as="targetPoint" />
          </mxGeometry>
        </mxCell>
        <mxCell id="oRkzwmTWN0kMbXDqS24B-39" value="" style="endArrow=classic;html=1;entryX=1;entryY=0;entryDx=0;entryDy=0;" parent="1" edge="1">
          <mxGeometry width="50" height="50" relative="1" as="geometry">
            <mxPoint x="590" y="215.74" as="sourcePoint" />
            <mxPoint x="590.2383297014435" y="286.5016702985565" as="targetPoint" />
          </mxGeometry>
        </mxCell>
        <mxCell id="oRkzwmTWN0kMbXDqS24B-40" value="" style="endArrow=classic;html=1;entryX=1;entryY=0;entryDx=0;entryDy=0;" parent="1" edge="1">
          <mxGeometry width="50" height="50" relative="1" as="geometry">
            <mxPoint x="750" y="215.74" as="sourcePoint" />
            <mxPoint x="750.2383297014435" y="286.5016702985565" as="targetPoint" />
          </mxGeometry>
        </mxCell>
        <mxCell id="oRkzwmTWN0kMbXDqS24B-41" value="&amp;lt;is&amp;gt;" style="text;html=1;strokeColor=none;fillColor=none;align=center;verticalAlign=middle;whiteSpace=wrap;rounded=0;fontSize=16;" parent="1" vertex="1">
          <mxGeometry x="39" y="238" width="40" height="20" as="geometry" />
        </mxCell>
        <mxCell id="oRkzwmTWN0kMbXDqS24B-42" value="&amp;lt;/is&amp;gt;" style="text;html=1;strokeColor=none;fillColor=none;align=center;verticalAlign=middle;whiteSpace=wrap;rounded=0;fontSize=16;" parent="1" vertex="1">
          <mxGeometry x="110" y="238" width="40" height="20" as="geometry" />
        </mxCell>
        <mxCell id="oRkzwmTWN0kMbXDqS24B-43" value="&amp;lt;is&amp;gt;" style="text;html=1;strokeColor=none;fillColor=none;align=center;verticalAlign=middle;whiteSpace=wrap;rounded=0;fontSize=16;" parent="1" vertex="1">
          <mxGeometry x="202" y="238" width="40" height="20" as="geometry" />
        </mxCell>
        <mxCell id="oRkzwmTWN0kMbXDqS24B-44" value="&amp;lt;is&amp;gt;" style="text;html=1;strokeColor=none;fillColor=none;align=center;verticalAlign=middle;whiteSpace=wrap;rounded=0;fontSize=16;" parent="1" vertex="1">
          <mxGeometry x="353" y="238" width="40" height="20" as="geometry" />
        </mxCell>
        <mxCell id="oRkzwmTWN0kMbXDqS24B-45" value="&amp;lt;is&amp;gt;" style="text;html=1;strokeColor=none;fillColor=none;align=center;verticalAlign=middle;whiteSpace=wrap;rounded=0;fontSize=16;" parent="1" vertex="1">
          <mxGeometry x="516" y="238" width="40" height="20" as="geometry" />
        </mxCell>
        <mxCell id="oRkzwmTWN0kMbXDqS24B-46" value="&amp;lt;is&amp;gt;" style="text;html=1;strokeColor=none;fillColor=none;align=center;verticalAlign=middle;whiteSpace=wrap;rounded=0;fontSize=16;" parent="1" vertex="1">
          <mxGeometry x="674" y="238" width="40" height="20" as="geometry" />
        </mxCell>
        <mxCell id="oRkzwmTWN0kMbXDqS24B-47" value="&amp;lt;/is&amp;gt;" style="text;html=1;strokeColor=none;fillColor=none;align=center;verticalAlign=middle;whiteSpace=wrap;rounded=0;fontSize=16;" parent="1" vertex="1">
          <mxGeometry x="275" y="238" width="40" height="20" as="geometry" />
        </mxCell>
        <mxCell id="oRkzwmTWN0kMbXDqS24B-48" value="&amp;lt;/is&amp;gt;" style="text;html=1;strokeColor=none;fillColor=none;align=center;verticalAlign=middle;whiteSpace=wrap;rounded=0;fontSize=16;" parent="1" vertex="1">
          <mxGeometry x="436" y="238" width="40" height="20" as="geometry" />
        </mxCell>
        <mxCell id="oRkzwmTWN0kMbXDqS24B-49" value="&amp;lt;/is&amp;gt;" style="text;html=1;strokeColor=none;fillColor=none;align=center;verticalAlign=middle;whiteSpace=wrap;rounded=0;fontSize=16;" parent="1" vertex="1">
          <mxGeometry x="595" y="240" width="40" height="20" as="geometry" />
        </mxCell>
        <mxCell id="oRkzwmTWN0kMbXDqS24B-50" value="&amp;lt;/is&amp;gt;" style="text;html=1;strokeColor=none;fillColor=none;align=center;verticalAlign=middle;whiteSpace=wrap;rounded=0;fontSize=16;" parent="1" vertex="1">
          <mxGeometry x="753" y="238" width="40" height="20" as="geometry" />
        </mxCell>
        <mxCell id="oRkzwmTWN0kMbXDqS24B-51" value="" style="endArrow=classic;html=1;fontSize=16;exitX=0.75;exitY=0;exitDx=0;exitDy=0;curved=1;" parent="1" source="oRkzwmTWN0kMbXDqS24B-25" edge="1">
          <mxGeometry width="50" height="50" relative="1" as="geometry">
            <mxPoint x="648" y="151" as="sourcePoint" />
            <mxPoint x="239" y="147" as="targetPoint" />
            <Array as="points">
              <mxPoint x="587" y="122" />
              <mxPoint x="414" y="117" />
              <mxPoint x="329" y="117" />
              <mxPoint x="239" y="117" />
            </Array>
          </mxGeometry>
        </mxCell>
        <mxCell id="oRkzwmTWN0kMbXDqS24B-53" value="&amp;lt;gbg&amp;gt;/p&lt;sub&gt;2&lt;/sub&gt;" style="text;html=1;strokeColor=none;fillColor=none;align=center;verticalAlign=middle;whiteSpace=wrap;rounded=0;fontSize=16;" parent="1" vertex="1">
          <mxGeometry x="392.5" y="89" width="40" height="20" as="geometry" />
        </mxCell>
      </root>
    </mxGraphModel>
  </diagram>
</mxfile>
